HIERARCHY
ROOT Hips
{
 OFFSET 0.000000 0.000000 0.000000
 CHANNELS 6 Xposition Yposition Zposition Yrotation Xrotation Zrotation
 JOINT Chest
 {
  OFFSET 0.000000 9.585900 0.002600
  CHANNELS 3 Yrotation Xrotation Zrotation
  JOINT Chest2
  {
   OFFSET 0.000000 9.601200 -0.005300
   CHANNELS 3 Yrotation Xrotation Zrotation
   JOINT Chest3
   {
    OFFSET 0.000000 9.561800 0.000000
    CHANNELS 3 Yrotation Xrotation Zrotation
    JOINT Chest4
    {
     OFFSET 0.000000 9.552100 0.000000
     CHANNELS 3 Yrotation Xrotation Zrotation
     JOINT Neck
     {
      OFFSET 0.000000 14.453000 0.000000
      CHANNELS 3 Yrotation Xrotation Zrotation
      JOINT Head
      {
       OFFSET 0.000000 8.936500 -0.011300
       CHANNELS 3 Yrotation Xrotation Zrotation
       End Site
       {
        OFFSET 0.000000 17.073600 -0.006000
       }
      }
     }
     JOINT RightCollar
     {
      OFFSET -2.921100 9.558500 0.000000
      CHANNELS 3 Yrotation Xrotation Zrotation
      JOINT RightShoulder
      {
       OFFSET -13.519700 0.000000 0.000000
       CHANNELS 3 Yrotation Xrotation Zrotation
       JOINT RightElbow
       {
        OFFSET 0.000000 -29.696600 0.000000
        CHANNELS 3 Yrotation Xrotation Zrotation
        JOINT RightWrist
        {
         OFFSET 0.000000 -24.004700 0.000000
         CHANNELS 3 Yrotation Xrotation Zrotation
         End Site
         {
          OFFSET 0.000000 -17.728500 0.000000
         }
        }
       }
      }
     }
     JOINT LeftCollar
     {
      OFFSET 2.921100 9.558500 0.000000
      CHANNELS 3 Yrotation Xrotation Zrotation
      JOINT LeftShoulder
      {
       OFFSET 13.519700 0.000000 0.000000
       CHANNELS 3 Yrotation Xrotation Zrotation
       JOINT LeftElbow
       {
        OFFSET 0.000000 -29.696600 0.000000
        CHANNELS 3 Yrotation Xrotation Zrotation
        JOINT LeftWrist
        {
         OFFSET 0.000000 -24.004700 0.000000
         CHANNELS 3 Yrotation Xrotation Zrotation
         End Site
         {
          OFFSET 0.000000 -17.728500 0.000000
         }
        }
       }
      }
     }
    }
   }
  }
 }
 JOINT RightHip
 {
  OFFSET -7.771700 -0.012900 -0.001300
  CHANNELS 3 Yrotation Xrotation Zrotation
  JOINT RightKnee
  {
   OFFSET 0.000000 -40.869800 0.001200
   CHANNELS 3 Yrotation Xrotation Zrotation
   JOINT RightAnkle
   {
    OFFSET 0.000000 -39.717900 0.002100
    CHANNELS 3 Yrotation Xrotation Zrotation
    JOINT RightToe
    {
     OFFSET 0.000000 -4.965400 11.033500
     CHANNELS 3 Yrotation Xrotation Zrotation
     End Site
     {
      OFFSET 0.000000 -1.423100 5.872300
     }
    }
   }
  }
 }
 JOINT LeftHip
 {
  OFFSET 7.771700 -0.012900 -0.001300
  CHANNELS 3 Yrotation Xrotation Zrotation
  JOINT LeftKnee
  {
   OFFSET 0.000000 -40.869800 0.001200
   CHANNELS 3 Yrotation Xrotation Zrotation
   JOINT LeftAnkle
   {
    OFFSET 0.000000 -39.717900 0.002100
    CHANNELS 3 Yrotation Xrotation Zrotation
    JOINT LeftToe
    {
     OFFSET 0.000000 -4.965400 11.033500
     CHANNELS 3 Yrotation Xrotation Zrotation
     End Site
     {
      OFFSET 0.000000 -1.423100 5.872300
     }
    }
   }
  }
 }
}
MOTION
Frames: 12
Frame Time: 0.008333
-56.228235 57.709946 11.434941 178.899415 -47.772059 -3.126154 2.864430 22.308236 2.974674 1.450578 12.746688 1.574044 1.904481 15.915481 2.020616 1.453396 12.756442 1.571906 0.004805 15.558439 2.346015 -0.772181 -6.915253 4.284353 1.607017 3.714302 -0.567101 -7.571171 -15.730456 -6.332010 -25.494274 -12.991419 91.847065 -13.753274 -9.844138 -27.638400 -10.492830 0.358227 -1.147106 -7.580194 -16.306798 15.845195 29.395990 -48.160858 -68.982829 -7.116209 4.903553 14.055643 5.427633 -23.642605 -3.353002 -32.942801 74.985648 -37.749518 6.434868 -15.839113 12.840759 0.026911 -0.013175 0.011913 -7.189572 -21.464646 5.175261 88.857910 81.313683 88.466688 0.426003 -21.744292 -18.564247 0.013105 0.037836 0.014252
-56.229475 57.709912 11.428068 178.904401 -47.734198 -3.142044 2.853806 22.287552 2.982470 1.425151 12.769121 1.579713 1.860947 15.933004 2.037054 1.470037 12.731669 1.547447 0.016781 15.552988 2.328831 -0.755863 -6.917158 4.253316 1.614861 3.735582 -0.593800 -7.584297 -15.739652 -6.319776 -25.471768 -13.010549 91.852342 -13.809907 -9.881268 -27.602334 -10.452811 0.319791 -1.178199 -7.679041 -16.311777 15.850619 29.205476 -48.505858 -68.675562 -6.959800 4.756104 14.137549 5.417330 -23.680933 -3.358888 -32.938557 75.003072 -37.735895 6.459985 -15.873929 12.831872 0.028484 -0.014575 0.009470 -7.192597 -21.503380 5.194362 88.925875 81.329049 88.541869 0.424279 -21.743758 -18.564580 0.018728 0.027967 0.017582
-56.230556 57.708799 11.422055 178.897808 -47.691121 -3.146546 2.849433 22.261654 2.987385 1.409118 12.781264 1.584972 1.858572 15.923550 2.036954 1.428434 12.748240 1.579691 0.041785 15.539211 2.283009 -0.740139 -6.921344 4.223857 1.655787 3.730515 -0.658291 -7.618526 -15.725660 -6.300094 -25.468662 -13.000742 91.858145 -13.831398 -9.890536 -27.553664 -10.409501 0.250294 -1.218949 -7.758257 -16.294508 15.828309 29.067701 -48.775796 -68.407983 -6.825994 4.615865 14.204374 5.416854 -23.724641 -3.355875 -32.980148 75.010240 -37.771733 6.446448 -15.915188 12.833486 0.027437 0.000374 0.007577 -7.193703 -21.546122 5.211117 89.005440 81.343628 88.621840 0.429389 -21.751444 -18.561122 0.011593 0.030501 0.013555
-56.230843 57.708115 11.415752 178.903563 -47.653168 -3.161642 2.829857 22.258665 2.993486 1.401227 12.773770 1.585915 1.872585 15.904041 2.029960 1.395813 12.763884 1.608261 0.053382 15.536963 2.257493 -0.722678 -6.917634 4.192926 1.684166 3.724273 -0.702599 -7.636316 -15.718763 -6.289919 -25.524636 -12.925654 91.865432 -13.803234 -9.844766 -27.510426 -10.391223 0.199517 -1.246928 -7.826457 -16.275955 15.801902 28.968511 -48.952215 -68.186888 -6.726287 4.492588 14.245879 5.407759 -23.765010 -3.351420 -33.033376 75.029724 -37.812047 6.432569 -15.950598 12.822391 0.044660 0.000404 0.011649 -7.195151 -21.586439 5.226693 89.082846 81.356764 88.707271 0.433956 -21.754770 -18.557285 0.010355 0.024891 0.012050
-56.231189 57.707300 11.409759 178.899637 -47.616095 -3.166773 2.804709 22.265565 2.989879 1.416818 12.743501 1.586046 1.854455 15.912124 2.040699 1.391641 12.760713 1.605529 0.060738 15.540303 2.244353 -0.704063 -6.906787 4.163682 1.703155 3.723306 -0.732160 -7.697075 -15.685682 -6.264540 -25.507190 -12.945140 91.884945 -13.853817 -9.859420 -27.453072 -10.382014 0.164010 -1.259306 -7.846657 -16.262880 15.777773 28.925105 -49.015543 -68.087936 -6.685446 4.435916 14.260117 5.402742 -23.803432 -3.352643 -33.045275 75.041745 -37.817253 6.427481 -15.977026 12.815953 0.049655 -0.000037 0.012730 -7.183626 -21.623764 5.235213 89.109443 81.362135 88.747224 0.437397 -21.757470 -18.555379 0.010288 0.023261 0.010690
-56.229881 57.703884 11.406684 178.886685 -47.558370 -3.173767 2.805660 22.221381 2.999666 1.414317 12.742067 1.587391 1.818647 15.940951 2.054828 1.419085 12.729704 1.582069 0.062029 15.551947 2.243132 -0.691511 -6.913440 4.146314 1.694313 3.739773 -0.745945 -7.747578 -15.667128 -6.239996 -25.486073 -12.972197 91.901376 -13.879694 -9.852666 -27.440034 -10.405669 0.147189 -1.253827 -7.881817 -16.254178 15.718349 28.879142 -49.015006 -67.930286 -6.640451 4.352022 14.240963 5.398922 -23.863652 -3.346812 -33.050660 75.051564 -37.817108 6.431370 -16.001819 12.808886 0.025005 -0.001180 0.010126 -7.168968 -21.679202 5.255337 89.123328 81.367762 88.776629 0.443391 -21.767991 -18.553835 0.005762 0.034346 0.008272
-56.230035 57.704171 11.400563 178.878812 -47.531188 -3.174425 2.799814 22.223701 2.998225 1.410763 12.737734 1.589184 1.820745 15.938696 2.056800 1.420294 12.715153 1.578477 0.066827 15.555022 2.237766 -0.684937 -6.911177 4.136912 1.685463 3.770055 -0.759344 -7.784718 -15.675213 -6.221703 -25.475868 -12.994153 91.910352 -13.890806 -9.828893 -27.435502 -10.410533 0.140547 -1.257063 -7.910709 -16.249652 15.655826 28.888031 -48.901500 -67.840942 -6.645881 4.320929 14.168346 5.396515 -23.893734 -3.352442 -33.043399 75.064683 -37.805754 6.446295 -16.018807 12.802002 0.031530 -0.011984 0.009393 -7.131455 -21.704688 5.252884 89.104859 81.371521 88.794745 0.438032 -21.772660 -18.550859 0.010883 0.032100 0.005789
-56.230987 57.705883 11.393638 178.869781 -47.515507 -3.169004 2.797113 22.236519 2.995648 1.400176 12.761306 1.589710 1.828145 15.911561 2.052091 1.407660 12.734754 1.590972 0.082366 15.523380 2.216887 -0.662996 -6.880136 4.114056 1.703225 3.741454 -0.787563 -7.807696 -15.674892 -6.213551 -25.483486 -13.007898 91.904989 -13.910991 -9.808044 -27.430732 -10.398875 0.099379 -1.269356 -7.899710 -16.249447 15.589598 28.922769 -48.716849 -67.823432 -6.694136 4.331095 14.070879 5.394215 -23.911608 -3.359545 -33.030518 75.075261 -37.794055 6.454542 -16.032908 12.799880 0.027209 -0.035761 0.008262 -7.107346 -21.717228 5.245534 89.100854 81.371915 88.809882 0.439871 -21.775305 -18.543988 0.010289 0.034711 0.000563
-56.231868 57.705598 11.389150 178.854234 -47.483201 -3.159591 2.796771 22.243791 2.989278 1.406976 12.734433 1.590874 1.822458 15.923768 2.050022 1.412156 12.722054 1.591183 0.082205 15.558089 2.214021 -0.652226 -6.920499 4.109987 1.703979 3.755984 -0.792707 -7.828708 -15.687916 -6.206862 -25.488220 -13.020345 91.896178 -13.947369 -9.808445 -27.452949 -10.401927 0.096473 -1.269694 -7.864002 -16.253926 15.515637 28.963336 -48.477168 -67.837484 -6.766500 4.359588 13.954177 5.394327 -23.948545 -3.361514 -33.025933 75.082305 -37.795994 6.454831 -16.044495 12.802722 0.024830 -0.034080 0.004577 -7.081586 -21.745230 5.238557 89.072242 81.368507 88.802034 0.441415 -21.782352 -18.541611 0.011363 0.038391 -0.004011
-56.231837 57.706332 11.384392 178.849171 -47.457705 -3.163613 2.798745 22.230901 2.992632 1.406311 12.734497 1.590564 1.822613 15.923341 2.049486 1.410605 12.722646 1.591285 0.084398 15.570025 2.207314 -0.637519 -6.922583 4.100157 1.704819 3.770243 -0.803155 -7.874470 -15.692268 -6.190814 -25.463899 -13.037529 91.898830 -14.007058 -9.836586 -27.540354 -10.400575 0.092094 -1.271342 -7.839736 -16.259871 15.479667 29.067162 -48.172308 -67.919656 -6.854593 4.407412 13.828622 5.385404 -23.978436 -3.357755 -33.037036 75.093486 -37.807050 6.455049 -16.053830 12.796764 0.024809 -0.038234 0.004429 -7.074451 -21.766423 5.242756 89.086167 81.365003 88.826759 0.445283 -21.791016 -18.542108 0.005863 0.042102 -0.006759
-56.230458 57.704512 11.382629 178.842132 -47.410281 -3.174751 2.803581 22.208519 2.999335 1.406222 12.733558 1.590984 1.826308 15.910255 2.051992 1.395723 12.767101 1.581533 0.101239 15.541033 2.203470 -0.623319 -6.925378 4.092985 1.724908 3.744176 -0.813566 -7.940832 -15.668409 -6.184493 -25.426748 -13.074821 91.945452 -14.053587 -9.860830 -27.617099 -10.382600 0.056282 -1.264431 -7.815016 -16.274805 15.449012 29.187228 -47.834778 -68.027465 -6.951171 4.470140 13.706154 5.372197 -24.029192 -3.354665 -33.003639 75.106187 -37.768426 6.454214 -16.069073 12.789578 0.016927 -0.038442 0.000416 -7.072617 -21.808700 5.258431 89.080943 81.353186 88.838291 0.443216 -21.801399 -18.550718 0.013493 0.050158 -0.006649
-56.231283 57.705902 11.378088 178.828927 -47.389572 -3.167544 2.806161 22.217151 2.988392 1.407002 12.734695 1.590100 1.823587 15.936556 2.038675 1.408426 12.735460 1.587984 0.104611 15.543783 2.197567 -0.607676 -6.935071 4.085919 1.734740 3.745319 -0.823659 -7.959804 -15.678110 -6.166253 -25.426467 -13.079324 91.923060 -14.098924 -9.868535 -27.652172 -10.376988 0.060042 -1.265702 -7.655127 -16.295979 15.308103 29.143897 -47.553877 -68.081842 -7.048201 4.544706 13.591355 5.375719 -24.050858 -3.359937 -33.010032 75.112600 -37.770814 6.464983 -16.086622 12.783387 0.017449 -0.039510 0.000892 -7.049558 -21.817098 5.241322 89.006533 81.333129 88.785911 0.451939 -21.815500 -18.559154 0.009671 0.063397 -0.007967
